<svg width="20" height="20" viewBox="0 0 20 20" fill="none" xmlns="http://www.w3.org/2000/svg">
<path d="M16.8626 9.40335C16.5294 9.08425 16.0924 8.89602 15.6316 8.87321C15.1708 8.8504 14.7173 8.99455 14.3543 9.27918L12.8701 4.78668C12.7462 4.40685 12.5151 4.07099 12.2045 3.81961C11.894 3.56823 11.5174 3.41209 11.1201 3.37002L3.96926 2.59502C3.78392 2.57558 3.59658 2.59782 3.42095 2.66013C3.24531 2.72244 3.08583 2.82322 2.95418 2.95512C2.82253 3.08701 2.72203 3.24667 2.66004 3.42242C2.59806 3.59816 2.57615 3.78554 2.59593 3.97085L3.37093 11.12C3.41249 11.5175 3.56845 11.8944 3.8199 12.205C4.07135 12.5156 4.40749 12.7466 4.78759 12.87L9.27926 14.345C9.0043 14.6813 8.85414 15.1023 8.85426 15.5367C8.8558 16.0335 9.05384 16.5095 9.40513 16.8608C9.75643 17.2121 10.2325 17.4101 10.7293 17.4117C11.2265 17.4101 11.7031 17.2121 12.0551 16.8608L16.8634 12.0533C17.0375 11.8793 17.1756 11.6727 17.2698 11.4453C17.364 11.2178 17.4125 10.9741 17.4125 10.7279C17.4125 10.4818 17.364 10.238 17.2698 10.0106C17.1756 9.78318 17.0375 9.57655 16.8634 9.40252L16.8626 9.40335ZM5.04593 12.0783C4.81854 12.0031 4.61755 11.8642 4.46686 11.6781C4.31617 11.4919 4.22213 11.2664 4.19593 11.0283L3.44593 4.03668L6.78759 7.37835C6.72794 7.55292 6.71826 7.74069 6.75964 7.92048C6.80101 8.10026 6.8918 8.26491 7.02176 8.39585C7.11137 8.48931 7.21874 8.56394 7.33758 8.61536C7.45642 8.66677 7.58433 8.69394 7.7138 8.69526C7.84328 8.69659 7.97171 8.67204 8.09158 8.62306C8.21144 8.57409 8.32032 8.50167 8.41182 8.41006C8.50332 8.31844 8.57561 8.20948 8.62444 8.08956C8.67327 7.96964 8.69766 7.84117 8.69618 7.71169C8.6947 7.58222 8.66738 7.45435 8.61582 7.33557C8.56426 7.2168 8.4895 7.10951 8.39593 7.02002C8.26729 6.88979 8.10385 6.79939 7.92517 6.75964C7.74649 6.71988 7.56014 6.73246 7.38843 6.79585L4.03843 3.44585L11.0301 4.19585C11.2688 4.21977 11.4953 4.31298 11.6817 4.46401C11.8682 4.61504 12.0063 4.81728 12.0793 5.04585L13.6884 9.92918L9.93009 13.6875L5.04593 12.0783ZM14.8034 9.98668C14.9496 9.84175 15.1355 9.74339 15.3376 9.70403C15.5396 9.66466 15.7488 9.68605 15.9387 9.76549C16.1287 9.84494 16.2908 9.97888 16.4046 10.1504C16.5185 10.3219 16.579 10.5233 16.5784 10.7292C16.5783 10.8657 16.551 11.0008 16.4982 11.1267C16.4454 11.2526 16.3682 11.3667 16.2709 11.4625L11.4618 16.2708C11.2636 16.4612 10.9994 16.5675 10.7247 16.5675C10.4499 16.5675 10.1858 16.4612 9.98759 16.2708C9.79482 16.0755 9.68673 15.812 9.68673 15.5375C9.68673 15.263 9.79482 14.9996 9.98759 14.8042L14.8034 9.98668Z" fill="black"/>
</svg>
